HIERARCHY
ROOT Hips
{
 OFFSET 0.000000 0.000000 0.000000
 CHANNELS 6 Xposition Yposition Zposition Yrotation Xrotation Zrotation
 JOINT Chest
 {
  OFFSET 0.000000 10.383400 0.001500
  CHANNELS 3 Yrotation Xrotation Zrotation
  JOINT Chest2
  {
   OFFSET 0.000000 10.418200 -0.003100
   CHANNELS 3 Yrotation Xrotation Zrotation
   JOINT Chest3
   {
    OFFSET 0.000000 10.375100 0.000000
    CHANNELS 3 Yrotation Xrotation Zrotation
    JOINT Chest4
    {
     OFFSET 0.000000 10.364600 0.000000
     CHANNELS 3 Yrotation Xrotation Zrotation
     JOINT Neck
     {
      OFFSET 0.000000 15.642200 0.000000
      CHANNELS 3 Yrotation Xrotation Zrotation
      JOINT Head
      {
       OFFSET 0.000000 9.697300 -0.006500
       CHANNELS 3 Yrotation Xrotation Zrotation
       End Site
       {
        OFFSET 0.000000 18.492200 -0.003400
       }
      }
     }
     JOINT RightCollar
     {
      OFFSET -3.166800 10.349300 0.000000
      CHANNELS 3 Yrotation Xrotation Zrotation
      JOINT RightShoulder
      {
       OFFSET -14.729700 0.000000 0.000000
       CHANNELS 3 Yrotation Xrotation Zrotation
       JOINT RightElbow
       {
        OFFSET 0.000000 -32.224300 0.000000
        CHANNELS 3 Yrotation Xrotation Zrotation
        JOINT RightWrist
        {
         OFFSET 0.000000 -26.084100 0.000000
         CHANNELS 3 Yrotation Xrotation Zrotation
         End Site
         {
          OFFSET 0.000000 -19.319400 0.000000
         }
        }
       }
      }
     }
     JOINT LeftCollar
     {
      OFFSET 3.166800 10.349300 0.000000
      CHANNELS 3 Yrotation Xrotation Zrotation
      JOINT LeftShoulder
      {
       OFFSET 14.729700 0.000000 0.000000
       CHANNELS 3 Yrotation Xrotation Zrotation
       JOINT LeftElbow
       {
        OFFSET 0.000000 -32.224300 0.000000
        CHANNELS 3 Yrotation Xrotation Zrotation
        JOINT LeftWrist
        {
         OFFSET 0.000000 -26.084100 0.000000
         CHANNELS 3 Yrotation Xrotation Zrotation
         End Site
         {
          OFFSET 0.000000 -19.319400 0.000000
         }
        }
       }
      }
     }
    }
   }
  }
 }
 JOINT RightHip
 {
  OFFSET -8.428900 -0.007500 -0.000800
  CHANNELS 3 Yrotation Xrotation Zrotation
  JOINT RightKnee
  {
   OFFSET 0.000000 -43.834600 0.000700
   CHANNELS 3 Yrotation Xrotation Zrotation
   JOINT RightAnkle
   {
    OFFSET 0.000000 -42.757000 0.001200
    CHANNELS 3 Yrotation Xrotation Zrotation
    JOINT RightToe
    {
     OFFSET 0.000000 -6.946900 15.649300
     CHANNELS 3 Yrotation Xrotation Zrotation
     End Site
     {
      OFFSET 0.000000 -1.580800 6.825800
     }
    }
   }
  }
 }
 JOINT LeftHip
 {
  OFFSET 8.428900 -0.007500 -0.000800
  CHANNELS 3 Yrotation Xrotation Zrotation
  JOINT LeftKnee
  {
   OFFSET 0.000000 -43.834600 0.000700
   CHANNELS 3 Yrotation Xrotation Zrotation
   JOINT LeftAnkle
   {
    OFFSET 0.000000 -42.757000 0.001200
    CHANNELS 3 Yrotation Xrotation Zrotation
    JOINT LeftToe
    {
     OFFSET 0.000000 -6.946900 15.649300
     CHANNELS 3 Yrotation Xrotation Zrotation
     End Site
     {
      OFFSET 0.000000 -1.580800 6.825800
     }
    }
   }
  }
 }
}
MOTION
Frames: 8
Frame Time: 0.008333
0.000000 93.354300 0.000000 0.000000 -5.767877 0.000000 0.000000 11.653817 0.000000 0.000000 -5.885947 0.000000 0.000000 -0.000000 0.000000 0.000000 -0.000000 0.000000 0.000000 12.528835 0.000000 0.000000 0.711642 0.000000 0.000000 -0.000000 0.000000 0.000000 0.000000 -90.000000 0.000000 -2.309062 0.000000 0.000000 2.309062 0.000000 0.000000 -0.000000 0.000000 0.000000 -0.000000 90.000000 0.000000 -2.309062 0.000000 0.000000 2.309062 0.000000 0.000000 8.520406 0.000000 0.000000 1.905762 0.000000 -0.000000 -4.658285 0.000000 0.000000 -0.000000 0.000000 0.000000 8.520406 0.000000 0.000000 1.905762 0.000000 -0.000000 -4.658285 0.000000 0.000000 -0.000000 0.000000
21.972542 126.805070 -45.867061 -18.846223 -25.611284 -0.600171 0.951630 15.806506 2.314316 0.063922 1.544765 0.212512 0.110513 2.589241 0.357303 0.808580 14.031328 2.033040 1.868924 13.308418 -1.025717 3.944976 -11.020068 -2.686345 -3.231573 -4.119814 -2.514887 6.590413 -12.532046 -5.434798 29.428387 -44.921498 -8.887735 9.029400 5.607134 -17.468579 -1.809797 -6.717492 -2.997974 -4.319873 -5.486724 4.057268 -31.802647 -52.169613 14.810004 -27.464170 8.848218 19.220469 -3.735094 -44.369998 0.558701 -23.224626 77.308815 -26.089963 4.071649 -6.476386 6.681236 0.002973 -0.007874 0.001320 -1.809799 -37.347709 -3.581105 -4.017123 70.128213 0.166720 -13.013980 -7.061631 -5.537386 -0.000005 0.000939 -0.000002
21.972635 126.805192 -45.866978 -18.844543 -25.611314 -0.605061 0.955732 15.811680 2.317613 0.064189 1.544984 0.212551 0.110771 2.589230 0.357529 0.803169 14.034030 2.035383 1.873221 13.306130 -1.028292 3.941211 -11.015413 -2.683927 -3.216377 -4.130938 -2.518304 6.594309 -12.526035 -5.431770 29.429418 -44.912551 -8.903231 9.018741 5.601477 -17.464931 -1.808698 -6.727211 -3.001396 -4.320520 -5.487476 4.064023 -31.789604 -52.168104 14.797738 -27.474579 8.843925 19.221085 -3.740300 -44.367372 0.565889 -23.215611 77.309019 -26.085145 4.069245 -6.480368 6.684935 0.002079 -0.006596 0.000923 -1.810834 -37.348398 -3.577818 -4.018333 70.129959 0.166496 -13.008833 -7.062053 -5.538495 0.000486 0.000804 0.000216
21.973025 126.805321 -45.866869 -18.844911 -25.611580 -0.607643 0.948901 15.815487 2.313318 0.067179 1.543262 0.216326 0.110428 2.589219 0.357965 0.805181 14.034397 2.036074 1.872385 13.308373 -1.026695 3.945980 -11.014603 -2.687517 -3.202193 -4.134832 -2.521484 6.587960 -12.523867 -5.429879 29.438807 -44.905687 -8.908878 9.008386 5.598030 -17.466823 -1.810841 -6.729679 -3.005275 -4.316213 -5.488086 4.069855 -31.795490 -52.160074 14.790990 -27.466622 8.842011 19.231201 -3.740590 -44.366285 0.567155 -23.208169 77.308788 -26.076815 4.068429 -6.480378 6.685207 0.001438 -0.006659 0.000638 -1.810724 -37.348737 -3.575976 -4.016943 70.131140 0.167033 -12.999384 -7.060680 -5.541807 0.001069 0.000908 0.000474
21.973393 126.805550 -45.866624 -18.844970 -25.613400 -0.609991 0.947923 15.821623 2.312234 0.063898 1.546612 0.213111 0.111869 2.584360 0.361687 0.806711 14.034604 2.037924 1.871961 13.312477 -1.026886 3.951040 -11.012192 -2.689554 -3.195058 -4.138416 -2.522264 6.598555 -12.520274 -5.434091 29.443450 -44.887840 -8.911285 8.991980 5.582950 -17.474909 -1.810183 -6.736513 -3.007783 -4.316547 -5.487086 4.075072 -31.791642 -52.153552 14.783311 -27.462675 8.839898 19.236559 -3.742090 -44.364577 0.569268 -23.209850 77.308860 -26.079363 4.070454 -6.477777 6.684295 0.000957 -0.006720 0.000425 -1.810554 -37.347351 -3.573012 -4.017922 70.131210 0.165016 -12.998338 -7.059046 -5.542391 0.000998 0.001033 0.000443
21.973779 126.805520 -45.866993 -18.848837 -25.612293 -0.611170 0.952284 15.825126 2.313574 0.064993 1.548493 0.212395 0.108795 2.584825 0.360051 0.808522 14.037833 2.037640 1.874262 13.312182 -1.026132 3.957150 -11.004113 -2.690930 -3.175222 -4.154381 -2.524950 6.595967 -12.508177 -5.434086 29.431764 -44.888459 -8.912144 8.989709 5.586974 -17.475242 -1.812511 -6.751543 -3.004662 -4.336521 -5.494161 4.094808 -31.738793 -52.142967 14.739709 -27.457695 8.839222 19.248812 -3.741507 -44.365250 0.575325 -23.216802 77.304895 -26.091027 4.072154 -6.473910 6.687523 -0.000404 -0.006795 -0.000179 -1.806402 -37.348262 -3.571826 -4.007702 70.128643 0.179152 -13.005363 -7.056525 -5.546262 0.000676 0.001379 0.000300
21.975197 126.805479 -45.866986 -18.841489 -25.611513 -0.610541 0.944916 15.826224 2.309389 0.066069 1.549925 0.211755 0.107960 2.590940 0.358923 0.806251 14.041775 2.033985 1.876155 13.310765 -1.025172 3.960466 -11.009648 -2.689778 -3.129750 -4.178052 -2.525665 6.563018 -12.492967 -5.436570 29.419186 -44.891244 -8.907485 8.992812 5.594250 -17.465523 -1.821083 -6.776934 -2.994621 -4.331322 -5.486089 4.095273 -31.719163 -52.132224 14.716145 -27.454224 8.835787 19.260692 -3.744833 -44.365370 0.571898 -23.211985 77.304141 -26.089289 4.068024 -6.472779 6.688687 0.000753 -0.006717 0.000334 -1.807334 -37.350319 -3.576013 -4.016414 70.124498 0.173177 -13.019630 -7.050946 -5.547141 -0.000699 0.000880 -0.000310
21.975914 126.805555 -45.866897 -18.838996 -25.612580 -0.610865 0.947304 15.830999 2.307864 0.063880 1.548496 0.212687 0.115112 2.596074 0.356473 0.807109 14.047493 2.030984 1.872258 13.305937 -1.020424 3.958828 -11.015109 -2.685902 -3.132659 -4.192799 -2.516156 6.570057 -12.496867 -5.447308 29.408712 -44.884114 -8.884103 8.987521 5.598451 -17.479953 -1.832453 -6.793158 -2.984030 -4.335957 -5.487766 4.099418 -31.700692 -52.121569 14.693342 -27.444042 8.834480 19.262714 -3.746491 -44.363748 0.571568 -23.209517 77.303526 -26.088090 4.065048 -6.471074 6.688544 0.001375 -0.007049 0.000611 -1.805612 -37.351517 -3.579670 -4.013512 70.125535 0.174421 -13.006929 -7.043142 -5.546637 -0.000760 0.000712 -0.000337
